<svg xmlns="http://www.w3.org/2000/svg" xmlns:xlink="http://www.w3.org/1999/xlink" width="1600" zoomAndPan="magnify" viewBox="0 0 1200 449.999984" height="600" preserveAspectRatio="xMidYMid meet" version="1.0"><defs><g/></defs><rect x="-120" width="1440" fill="#ffffff" y="-44.999998" height="539.99998" fill-opacity="1"/><rect x="-120" width="1440" fill="#cce5eb" y="-44.999998" height="539.99998" fill-opacity="1"/><g fill="#615d47" fill-opacity="1"><g transform="translate(297.499618, 199.613535)"><g><path d="M 4.976562 -44.570312 L 11.265625 -44.570312 L 11.265625 0 L 4.976562 0 Z M 4.976562 -44.570312 "/></g></g></g><g fill="#615d47" fill-opacity="1"><g transform="translate(313.740273, 199.613535)"><g><path d="M 4.367188 -33.582031 L 9.859375 -33.582031 L 10.164062 -27.628906 C 11.144531 -29.519531 12.542969 -31.0625 14.363281 -32.253906 C 16.183594 -33.445312 18.316406 -34.039062 20.757812 -34.039062 C 23.445312 -34.039062 25.816406 -33.417969 27.871094 -32.175781 C 29.929688 -30.933594 31.539062 -29.042969 32.710938 -26.5 C 33.882812 -23.953125 34.464844 -20.808594 34.464844 -17.066406 L 34.464844 0 L 28.511719 0 L 28.511719 -17.066406 C 28.511719 -19.527344 28.105469 -21.589844 27.292969 -23.246094 C 26.476562 -24.90625 25.390625 -26.140625 24.027344 -26.957031 C 22.664062 -27.769531 21.125 -28.179688 19.417969 -28.179688 C 17.707031 -28.179688 16.167969 -27.777344 14.804688 -26.972656 C 13.441406 -26.167969 12.355469 -24.9375 11.539062 -23.277344 C 10.726562 -21.621094 10.320312 -19.546875 10.320312 -17.066406 L 10.320312 0 L 4.367188 0 Z M 4.367188 -33.582031 "/></g></g></g><g fill="#615d47" fill-opacity="1"><g transform="translate(351.899706, 199.613535)"><g><path d="M 17.613281 0.609375 C 14.929688 0.609375 12.222656 0.132812 9.496094 -0.824219 C 6.765625 -1.78125 4.496094 -3.257812 2.6875 -5.25 L 6.777344 -9.160156 C 7.875 -7.917969 9.433594 -6.914062 11.449219 -6.152344 C 13.464844 -5.386719 15.527344 -5.007812 17.644531 -5.007812 C 19.882812 -5.007812 21.679688 -5.417969 23.035156 -6.242188 C 24.386719 -7.066406 25.0625 -8.203125 25.0625 -9.648438 C 25.0625 -10.605469 24.707031 -11.382812 23.996094 -11.980469 C 23.28125 -12.582031 22.355469 -13.054688 21.21875 -13.402344 C 20.078125 -13.746094 18.644531 -14.105469 16.914062 -14.46875 C 14.207031 -15.0625 11.988281 -15.671875 10.257812 -16.300781 C 8.527344 -16.933594 7.027344 -17.929688 5.753906 -19.292969 C 4.484375 -20.65625 3.847656 -22.480469 3.847656 -24.757812 C 3.847656 -26.570312 4.371094 -28.183594 5.417969 -29.597656 C 6.46875 -31.011719 7.953125 -32.117188 9.875 -32.910156 C 11.800781 -33.703125 14.023438 -34.101562 16.546875 -34.101562 C 19.070312 -34.101562 21.527344 -33.679688 23.917969 -32.832031 C 26.308594 -31.988281 28.351562 -30.570312 30.039062 -28.574219 L 26.375 -24.910156 C 25.296875 -26.195312 23.859375 -27.148438 22.058594 -27.78125 C 20.253906 -28.410156 18.46875 -28.726562 16.699219 -28.726562 C 14.644531 -28.726562 12.980469 -28.371094 11.707031 -27.660156 C 10.4375 -26.945312 9.800781 -25.96875 9.800781 -24.726562 C 9.800781 -23.894531 10.128906 -23.21875 10.792969 -22.699219 C 11.453125 -22.179688 12.316406 -21.757812 13.386719 -21.429688 C 14.457031 -21.105469 15.824219 -20.757812 17.492188 -20.394531 C 20.242188 -19.78125 22.523438 -19.15625 24.347656 -18.515625 C 26.167969 -17.875 27.746094 -16.847656 29.078125 -15.433594 C 30.410156 -14.019531 31.078125 -12.140625 31.078125 -9.800781 C 31.078125 -7.5 30.460938 -5.566406 29.230469 -4 C 28 -2.433594 26.367188 -1.273438 24.332031 -0.519531 C 22.296875 0.234375 20.058594 0.609375 17.613281 0.609375 Z M 17.613281 0.609375 "/></g></g></g><g fill="#615d47" fill-opacity="1"><g transform="translate(385.663175, 199.613535)"><g><path d="M 19.613281 0.457031 C 16.464844 0.457031 13.570312 -0.320312 10.933594 -1.878906 C 8.296875 -3.4375 6.214844 -5.539062 4.679688 -8.179688 C 3.148438 -10.824219 2.382812 -13.707031 2.382812 -16.820312 C 2.382812 -19.921875 3.148438 -22.789062 4.6875 -25.421875 C 6.222656 -28.050781 8.308594 -30.140625 10.945312 -31.6875 C 13.578125 -33.234375 16.46875 -34.007812 19.613281 -34.007812 C 22.433594 -34.007812 25.078125 -33.351562 27.550781 -32.039062 C 30.023438 -30.726562 32.066406 -28.949219 33.671875 -26.710938 L 28.726562 -23.414062 C 27.6875 -24.820312 26.367188 -25.929688 24.765625 -26.742188 C 23.160156 -27.558594 21.433594 -27.964844 19.589844 -27.964844 C 17.558594 -27.964844 15.691406 -27.460938 13.980469 -26.453125 C 12.269531 -25.445312 10.910156 -24.09375 9.902344 -22.394531 C 8.898438 -20.691406 8.394531 -18.832031 8.394531 -16.8125 C 8.394531 -14.789062 8.898438 -12.917969 9.902344 -11.199219 C 10.910156 -9.480469 12.269531 -8.113281 13.980469 -7.101562 C 15.691406 -6.09375 17.570312 -5.585938 19.613281 -5.585938 C 21.507812 -5.585938 23.269531 -6.019531 24.902344 -6.882812 C 26.535156 -7.75 27.863281 -8.933594 28.878906 -10.441406 L 33.824219 -7.144531 C 32.265625 -4.792969 30.230469 -2.941406 27.722656 -1.582031 C 25.21875 -0.222656 22.515625 0.457031 19.613281 0.457031 Z M 19.613281 0.457031 "/></g></g></g><g fill="#615d47" fill-opacity="1"><g transform="translate(421.746734, 199.613535)"><g><path d="M 4.367188 -33.550781 L 9.859375 -33.582031 L 10.226562 -28.085938 C 11.222656 -29.898438 12.644531 -31.300781 14.484375 -32.300781 C 16.328125 -33.296875 18.46875 -33.785156 20.910156 -33.765625 C 21.765625 -33.765625 22.613281 -33.703125 23.445312 -33.582031 L 22.226562 -27.84375 C 21.816406 -27.902344 21.421875 -27.933594 21.035156 -27.933594 C 17.878906 -27.953125 15.304688 -26.972656 13.308594 -24.988281 C 11.316406 -23.003906 10.320312 -19.832031 10.320312 -15.476562 L 10.320312 0 L 4.367188 0 Z M 4.367188 -33.550781 "/></g></g></g><g fill="#615d47" fill-opacity="1"><g transform="translate(446.657221, 199.613535)"><g><path d="M 4.367188 -33.582031 L 10.320312 -33.582031 L 10.320312 0 L 4.367188 0 Z M 7.355469 -37 C 6.339844 -37 5.460938 -37.371094 4.714844 -38.113281 C 3.972656 -38.859375 3.601562 -39.738281 3.601562 -40.753906 C 3.601562 -41.792969 3.972656 -42.683594 4.714844 -43.425781 C 5.460938 -44.167969 6.339844 -44.542969 7.355469 -44.542969 C 8.375 -44.542969 9.25 -44.164062 9.984375 -43.410156 C 10.714844 -42.660156 11.082031 -41.773438 11.082031 -40.753906 C 11.082031 -39.738281 10.714844 -38.859375 9.984375 -38.113281 C 9.25 -37.371094 8.375 -37 7.355469 -37 Z M 7.355469 -37 "/></g></g></g><g fill="#615d47" fill-opacity="1"><g transform="translate(461.310448, 199.613535)"><g><path d="M 18.867188 13.433594 C 17.6875 13.433594 16.578125 13.289062 15.539062 13.003906 C 14.5 12.71875 13.707031 12.375 13.15625 11.96875 L 14.59375 8.609375 C 14.898438 8.875 15.4375 9.117188 16.210938 9.339844 C 16.984375 9.566406 17.738281 9.675781 18.46875 9.675781 C 19.425781 9.675781 20.179688 9.484375 20.730469 9.097656 C 21.277344 8.710938 21.554688 8.191406 21.554688 7.539062 C 21.554688 6.847656 21.246094 6.300781 20.636719 5.890625 C 20.027344 5.484375 19.121094 5.28125 17.921875 5.28125 L 15.753906 5.28125 L 17.277344 0.214844 C 14.492188 -0.152344 11.960938 -1.128906 9.691406 -2.71875 C 7.421875 -4.304688 5.636719 -6.335938 4.335938 -8.808594 C 3.03125 -11.28125 2.382812 -13.953125 2.382812 -16.820312 C 2.382812 -19.914062 3.148438 -22.78125 4.6875 -25.414062 C 6.222656 -28.050781 8.308594 -30.140625 10.945312 -31.6875 C 13.578125 -33.234375 16.464844 -34.007812 19.597656 -34.007812 C 22.429688 -34.007812 25.078125 -33.351562 27.550781 -32.039062 C 30.023438 -30.726562 32.066406 -28.949219 33.671875 -26.710938 L 28.726562 -23.414062 C 27.6875 -24.820312 26.367188 -25.929688 24.757812 -26.742188 C 23.152344 -27.558594 21.429688 -27.964844 19.597656 -27.964844 C 17.5625 -27.964844 15.691406 -27.460938 13.980469 -26.453125 C 12.273438 -25.445312 10.914062 -24.09375 9.90625 -22.394531 C 8.898438 -20.691406 8.394531 -18.835938 8.394531 -16.820312 C 8.394531 -14.785156 8.898438 -12.910156 9.90625 -11.1875 C 10.914062 -9.46875 12.273438 -8.105469 13.980469 -7.097656 C 15.691406 -6.089844 17.5625 -5.585938 19.597656 -5.585938 C 21.492188 -5.585938 23.257812 -6.019531 24.894531 -6.882812 C 26.535156 -7.75 27.863281 -8.933594 28.878906 -10.441406 L 33.824219 -7.144531 C 32.402344 -5.066406 30.601562 -3.367188 28.421875 -2.046875 C 26.246094 -0.722656 23.875 0.0703125 21.308594 0.335938 L 20.484375 2.871094 C 22.09375 3.074219 23.332031 3.617188 24.210938 4.503906 C 25.085938 5.386719 25.523438 6.492188 25.523438 7.816406 C 25.523438 8.832031 25.238281 9.773438 24.667969 10.640625 C 24.097656 11.503906 23.304688 12.1875 22.285156 12.683594 C 21.269531 13.183594 20.128906 13.433594 18.867188 13.433594 Z M 18.867188 13.433594 "/></g></g></g><g fill="#615d47" fill-opacity="1"><g transform="translate(497.394007, 199.613535)"><g><path d="M 18.746094 0.425781 C 15.773438 0.425781 13.039062 -0.347656 10.546875 -1.894531 C 8.054688 -3.441406 6.070312 -5.53125 4.59375 -8.167969 C 3.117188 -10.800781 2.382812 -13.675781 2.382812 -16.789062 C 2.382812 -19.90625 3.117188 -22.78125 4.59375 -25.414062 C 6.070312 -28.050781 8.054688 -30.148438 10.546875 -31.703125 C 13.039062 -33.261719 15.773438 -34.039062 18.746094 -34.039062 C 21.429688 -34.039062 23.917969 -33.332031 26.207031 -31.917969 C 28.5 -30.503906 30.171875 -28.695312 31.230469 -26.5 L 31.535156 -33.582031 L 37.03125 -33.582031 L 37.03125 0 L 31.535156 0 L 31.230469 -6.992188 C 30.171875 -4.855469 28.5 -3.082031 26.207031 -1.679688 C 23.917969 -0.273438 21.429688 0.425781 18.746094 0.425781 Z M 19.691406 -5.464844 C 21.746094 -5.464844 23.648438 -5.972656 25.398438 -6.992188 C 27.148438 -8.007812 28.535156 -9.382812 29.550781 -11.113281 C 30.570312 -12.84375 31.078125 -14.734375 31.078125 -16.789062 C 31.078125 -18.847656 30.570312 -20.742188 29.550781 -22.484375 C 28.535156 -24.222656 27.148438 -25.609375 25.398438 -26.636719 C 23.648438 -27.664062 21.746094 -28.179688 19.691406 -28.179688 C 17.65625 -28.179688 15.773438 -27.664062 14.042969 -26.636719 C 12.3125 -25.609375 10.9375 -24.222656 9.921875 -22.484375 C 8.902344 -20.742188 8.394531 -18.847656 8.394531 -16.789062 C 8.394531 -14.734375 8.902344 -12.84375 9.921875 -11.113281 C 10.9375 -9.382812 12.3125 -8.007812 14.042969 -6.992188 C 15.773438 -5.972656 17.65625 -5.464844 19.691406 -5.464844 Z M 25.035156 -40.082031 C 23.933594 -40.003906 23 -40.199219 22.226562 -40.679688 C 21.453125 -41.15625 20.628906 -41.824219 19.75 -42.679688 C 19.222656 -43.1875 18.753906 -43.589844 18.347656 -43.882812 C 17.941406 -44.179688 17.542969 -44.308594 17.15625 -44.265625 C 16.609375 -44.226562 16.167969 -43.910156 15.84375 -43.320312 C 15.519531 -42.730469 15.355469 -41.875 15.355469 -40.753906 L 11.355469 -40.753906 C 11.355469 -42.832031 11.820312 -44.542969 12.746094 -45.882812 C 13.671875 -47.226562 14.949219 -47.917969 16.578125 -47.960938 C 17.675781 -48.019531 18.601562 -47.824219 19.355469 -47.363281 C 20.109375 -46.90625 20.902344 -46.261719 21.734375 -45.425781 C 22.285156 -44.855469 22.757812 -44.429688 23.15625 -44.144531 C 23.550781 -43.859375 23.976562 -43.738281 24.421875 -43.777344 C 24.929688 -43.820312 25.328125 -44.117188 25.613281 -44.679688 C 25.898438 -45.238281 26.039062 -46.097656 26.039062 -47.257812 L 30.070312 -47.257812 C 30.070312 -45.082031 29.632812 -43.359375 28.757812 -42.097656 C 27.882812 -40.835938 26.640625 -40.164062 25.035156 -40.082031 Z M 25.035156 -40.082031 "/></g></g></g><g fill="#615d47" fill-opacity="1"><g transform="translate(538.789364, 199.613535)"><g><path d="M 19.609375 0.457031 C 16.460938 0.457031 13.570312 -0.320312 10.933594 -1.878906 C 8.296875 -3.4375 6.214844 -5.539062 4.679688 -8.179688 C 3.148438 -10.824219 2.382812 -13.707031 2.382812 -16.820312 C 2.382812 -19.921875 3.148438 -22.789062 4.6875 -25.421875 C 6.222656 -28.050781 8.308594 -30.140625 10.941406 -31.6875 C 13.578125 -33.234375 16.46875 -34.007812 19.613281 -34.007812 C 22.71875 -34.007812 25.582031 -33.234375 28.207031 -31.6875 C 30.832031 -30.140625 32.925781 -28.050781 34.480469 -25.414062 C 36.039062 -22.78125 36.816406 -19.910156 36.816406 -16.808594 C 36.816406 -13.703125 36.039062 -10.828125 34.480469 -8.183594 C 32.921875 -5.539062 30.832031 -3.4375 28.207031 -1.878906 C 25.582031 -0.320312 22.714844 0.457031 19.609375 0.457031 Z M 19.605469 -5.585938 C 21.617188 -5.585938 23.476562 -6.09375 25.1875 -7.101562 C 26.898438 -8.113281 28.257812 -9.480469 29.261719 -11.199219 C 30.269531 -12.917969 30.773438 -14.789062 30.773438 -16.8125 C 30.773438 -18.832031 30.269531 -20.691406 29.261719 -22.394531 C 28.257812 -24.09375 26.898438 -25.445312 25.1875 -26.453125 C 23.476562 -27.460938 21.617188 -27.964844 19.605469 -27.964844 C 17.566406 -27.964844 15.691406 -27.460938 13.980469 -26.453125 C 12.269531 -25.445312 10.910156 -24.09375 9.902344 -22.394531 C 8.898438 -20.691406 8.394531 -18.832031 8.394531 -16.8125 C 8.394531 -14.789062 8.898438 -12.917969 9.902344 -11.199219 C 10.910156 -9.480469 12.269531 -8.113281 13.980469 -7.101562 C 15.691406 -6.09375 17.566406 -5.585938 19.605469 -5.585938 Z M 19.605469 -5.585938 "/></g></g></g><g fill="#615d47" fill-opacity="1"><g transform="translate(577.986727, 199.613535)"><g/></g></g><g fill="#615d47" fill-opacity="1"><g transform="translate(594.654761, 199.613535)"><g><path d="M 4.976562 -44.570312 L 21.917969 -44.570312 C 24.851562 -44.570312 27.457031 -43.945312 29.734375 -42.695312 C 32.015625 -41.441406 33.78125 -39.75 35.03125 -37.609375 C 36.28125 -35.472656 36.910156 -33.125 36.910156 -30.558594 C 36.910156 -28.503906 36.480469 -26.582031 35.625 -24.789062 C 34.773438 -23 33.578125 -21.472656 32.039062 -20.210938 C 30.503906 -18.949219 28.726562 -18.082031 26.710938 -17.613281 L 37.640625 0 L 30.316406 0 L 20.210938 -16.515625 L 11.265625 -16.515625 L 11.265625 0 L 4.976562 0 Z M 21.796875 -22.683594 C 23.527344 -22.683594 25.046875 -23.039062 26.359375 -23.75 C 27.675781 -24.464844 28.6875 -25.421875 29.398438 -26.621094 C 30.109375 -27.820312 30.46875 -29.132812 30.46875 -30.558594 C 30.46875 -31.964844 30.109375 -33.265625 29.398438 -34.464844 C 28.6875 -35.667969 27.675781 -36.625 26.359375 -37.335938 C 25.046875 -38.046875 23.527344 -38.40625 21.796875 -38.40625 L 11.265625 -38.40625 L 11.265625 -22.683594 Z M 21.796875 -22.683594 "/></g></g></g><g fill="#615d47" fill-opacity="1"><g transform="translate(633.852124, 199.613535)"><g><path d="M 20.179688 0.457031 C 16.863281 0.457031 13.839844 -0.316406 11.113281 -1.863281 C 8.386719 -3.410156 6.25 -5.503906 4.703125 -8.152344 C 3.15625 -10.796875 2.382812 -13.6875 2.382812 -16.820312 C 2.382812 -19.914062 3.144531 -22.78125 4.671875 -25.414062 C 6.199219 -28.050781 8.261719 -30.140625 10.867188 -31.6875 C 13.472656 -33.234375 16.324219 -34.007812 19.417969 -34.007812 C 22.613281 -34.007812 25.5 -33.234375 28.085938 -31.6875 C 30.671875 -30.140625 32.707031 -28.054688 34.191406 -25.429688 C 35.675781 -22.804688 36.421875 -19.933594 36.421875 -16.820312 C 36.421875 -16.089844 36.359375 -15.152344 36.238281 -14.011719 L 8.761719 -14.011719 C 9.085938 -12.34375 9.785156 -10.832031 10.851562 -9.480469 C 11.921875 -8.125 13.269531 -7.0625 14.898438 -6.289062 C 16.527344 -5.515625 18.285156 -5.128906 20.179688 -5.128906 C 22.214844 -5.128906 24.050781 -5.511719 25.691406 -6.273438 C 27.328125 -7.035156 28.695312 -8.101562 29.796875 -9.464844 L 34.621094 -6.441406 C 33.03125 -4.34375 30.941406 -2.671875 28.34375 -1.417969 C 25.75 -0.167969 23.027344 0.457031 20.179688 0.457031 Z M 30.285156 -18.898438 C 30.183594 -20.628906 29.660156 -22.21875 28.710938 -23.675781 C 27.765625 -25.128906 26.488281 -26.285156 24.878906 -27.140625 C 23.273438 -27.996094 21.460938 -28.421875 19.445312 -28.421875 C 17.535156 -28.421875 15.777344 -27.996094 14.179688 -27.140625 C 12.582031 -26.285156 11.300781 -25.125 10.332031 -23.660156 C 9.367188 -22.195312 8.832031 -20.605469 8.730469 -18.898438 Z M 30.285156 -18.898438 "/></g></g></g><g fill="#615d47" fill-opacity="1"><g transform="translate(672.683175, 199.613535)"><g><path d="M 18.746094 0.425781 C 15.78125 0.425781 13.050781 -0.347656 10.550781 -1.894531 C 8.054688 -3.441406 6.070312 -5.53125 4.59375 -8.171875 C 3.117188 -10.8125 2.382812 -13.6875 2.382812 -16.796875 C 2.382812 -19.90625 3.121094 -22.78125 4.597656 -25.417969 C 6.078125 -28.058594 8.0625 -30.152344 10.550781 -31.707031 C 13.042969 -33.261719 15.773438 -34.039062 18.746094 -34.039062 C 21.441406 -34.039062 23.929688 -33.332031 26.214844 -31.917969 C 28.5 -30.503906 30.171875 -28.695312 31.230469 -26.5 L 31.535156 -33.582031 L 37.03125 -33.582031 L 37.03125 0 L 31.535156 0 L 31.230469 -6.992188 C 30.171875 -4.855469 28.5 -3.082031 26.214844 -1.679688 C 23.929688 -0.273438 21.441406 0.425781 18.746094 0.425781 Z M 19.679688 -5.464844 C 21.738281 -5.464844 23.644531 -5.972656 25.398438 -6.992188 C 27.148438 -8.007812 28.535156 -9.382812 29.550781 -11.113281 C 30.570312 -12.847656 31.078125 -14.738281 31.078125 -16.792969 C 31.078125 -18.847656 30.570312 -20.742188 29.550781 -22.484375 C 28.535156 -24.222656 27.148438 -25.609375 25.398438 -26.636719 C 23.644531 -27.664062 21.738281 -28.179688 19.679688 -28.179688 C 17.652344 -28.179688 15.773438 -27.664062 14.042969 -26.640625 C 12.3125 -25.613281 10.9375 -24.226562 9.921875 -22.480469 C 8.902344 -20.734375 8.394531 -18.835938 8.394531 -16.785156 C 8.394531 -14.734375 8.902344 -12.84375 9.921875 -11.113281 C 10.9375 -9.382812 12.3125 -8.007812 14.042969 -6.992188 C 15.773438 -5.972656 17.652344 -5.464844 19.679688 -5.464844 Z M 19.679688 -5.464844 "/></g></g></g><g fill="#615d47" fill-opacity="1"><g transform="translate(714.078532, 199.613535)"><g><path d="M 4.367188 -47.625 L 10.320312 -47.625 L 10.320312 0 L 4.367188 0 Z M 4.367188 -47.625 "/></g></g></g><g fill="#615d47" fill-opacity="1"><g transform="translate(728.731743, 199.613535)"><g><path d="M 4.367188 -33.582031 L 10.320312 -33.582031 L 10.320312 0 L 4.367188 0 Z M 7.355469 -37 C 6.339844 -37 5.460938 -37.371094 4.714844 -38.113281 C 3.972656 -38.859375 3.601562 -39.738281 3.601562 -40.753906 C 3.601562 -41.792969 3.972656 -42.683594 4.714844 -43.425781 C 5.460938 -44.167969 6.339844 -44.542969 7.355469 -44.542969 C 8.375 -44.542969 9.25 -44.164062 9.984375 -43.410156 C 10.714844 -42.660156 11.082031 -41.773438 11.082031 -40.753906 C 11.082031 -39.738281 10.714844 -38.859375 9.984375 -38.113281 C 9.25 -37.371094 8.375 -37 7.355469 -37 Z M 7.355469 -37 "/></g></g></g><g fill="#615d47" fill-opacity="1"><g transform="translate(743.384954, 199.613535)"><g><path d="M 3.082031 -4.457031 L 22.804688 -28.207031 L 3.082031 -28.207031 L 3.082031 -33.582031 L 30.957031 -33.582031 L 30.957031 -28.878906 L 11.660156 -5.617188 L 31.8125 -5.617188 L 31.8125 0 L 3.082031 0 Z M 3.082031 -4.457031 "/></g></g></g><g fill="#615d47" fill-opacity="1"><g transform="translate(778.308464, 199.613535)"><g><path d="M 18.746094 0.425781 C 15.78125 0.425781 13.050781 -0.347656 10.550781 -1.894531 C 8.054688 -3.441406 6.070312 -5.53125 4.59375 -8.171875 C 3.117188 -10.8125 2.382812 -13.6875 2.382812 -16.796875 C 2.382812 -19.90625 3.121094 -22.78125 4.597656 -25.417969 C 6.078125 -28.058594 8.0625 -30.152344 10.550781 -31.707031 C 13.042969 -33.261719 15.773438 -34.039062 18.746094 -34.039062 C 21.441406 -34.039062 23.929688 -33.332031 26.214844 -31.917969 C 28.5 -30.503906 30.171875 -28.695312 31.230469 -26.5 L 31.535156 -33.582031 L 37.03125 -33.582031 L 37.03125 0 L 31.535156 0 L 31.230469 -6.992188 C 30.171875 -4.855469 28.5 -3.082031 26.214844 -1.679688 C 23.929688 -0.273438 21.441406 0.425781 18.746094 0.425781 Z M 19.679688 -5.464844 C 21.738281 -5.464844 23.644531 -5.972656 25.398438 -6.992188 C 27.148438 -8.007812 28.535156 -9.382812 29.550781 -11.113281 C 30.570312 -12.847656 31.078125 -14.738281 31.078125 -16.792969 C 31.078125 -18.847656 30.570312 -20.742188 29.550781 -22.484375 C 28.535156 -24.222656 27.148438 -25.609375 25.398438 -26.636719 C 23.644531 -27.664062 21.738281 -28.179688 19.679688 -28.179688 C 17.652344 -28.179688 15.773438 -27.664062 14.042969 -26.640625 C 12.3125 -25.613281 10.9375 -24.226562 9.921875 -22.480469 C 8.902344 -20.734375 8.394531 -18.835938 8.394531 -16.785156 C 8.394531 -14.734375 8.902344 -12.84375 9.921875 -11.113281 C 10.9375 -9.382812 12.3125 -8.007812 14.042969 -6.992188 C 15.773438 -5.972656 17.652344 -5.464844 19.679688 -5.464844 Z M 19.679688 -5.464844 "/></g></g></g><g fill="#615d47" fill-opacity="1"><g transform="translate(819.703821, 199.613535)"><g><path d="M 18.746094 0.425781 C 15.78125 0.425781 13.050781 -0.347656 10.550781 -1.894531 C 8.054688 -3.441406 6.070312 -5.53125 4.59375 -8.171875 C 3.117188 -10.8125 2.382812 -13.6875 2.382812 -16.796875 C 2.382812 -19.90625 3.121094 -22.78125 4.597656 -25.417969 C 6.078125 -28.058594 8.0625 -30.152344 10.550781 -31.707031 C 13.042969 -33.261719 15.773438 -34.039062 18.746094 -34.039062 C 21.390625 -34.039062 23.847656 -33.347656 26.117188 -31.964844 C 28.386719 -30.578125 30.039062 -28.820312 31.078125 -26.683594 L 31.078125 -47.625 L 37.03125 -47.625 L 37.03125 0 L 31.535156 0 L 31.230469 -6.992188 C 30.171875 -4.855469 28.5 -3.082031 26.214844 -1.679688 C 23.929688 -0.273438 21.441406 0.425781 18.746094 0.425781 Z M 19.679688 -5.464844 C 21.738281 -5.464844 23.644531 -5.972656 25.398438 -6.992188 C 27.148438 -8.007812 28.535156 -9.382812 29.550781 -11.113281 C 30.570312 -12.847656 31.078125 -14.738281 31.078125 -16.792969 C 31.078125 -18.847656 30.570312 -20.742188 29.550781 -22.484375 C 28.535156 -24.222656 27.148438 -25.609375 25.398438 -26.636719 C 23.644531 -27.664062 21.738281 -28.179688 19.679688 -28.179688 C 17.652344 -28.179688 15.773438 -27.664062 14.042969 -26.640625 C 12.3125 -25.613281 10.9375 -24.226562 9.921875 -22.480469 C 8.902344 -20.734375 8.394531 -18.835938 8.394531 -16.785156 C 8.394531 -14.734375 8.902344 -12.84375 9.921875 -11.113281 C 10.9375 -9.382812 12.3125 -8.007812 14.042969 -6.992188 C 15.773438 -5.972656 17.652344 -5.464844 19.679688 -5.464844 Z M 19.679688 -5.464844 "/></g></g></g><g fill="#615d47" fill-opacity="1"><g transform="translate(861.099179, 199.613535)"><g><path d="M 18.746094 0.425781 C 15.78125 0.425781 13.050781 -0.347656 10.550781 -1.894531 C 8.054688 -3.441406 6.070312 -5.53125 4.59375 -8.171875 C 3.117188 -10.8125 2.382812 -13.6875 2.382812 -16.796875 C 2.382812 -19.90625 3.121094 -22.78125 4.597656 -25.417969 C 6.078125 -28.058594 8.0625 -30.152344 10.550781 -31.707031 C 13.042969 -33.261719 15.773438 -34.039062 18.746094 -34.039062 C 21.441406 -34.039062 23.929688 -33.332031 26.214844 -31.917969 C 28.5 -30.503906 30.171875 -28.695312 31.230469 -26.5 L 31.535156 -33.582031 L 37.03125 -33.582031 L 37.03125 0 L 31.535156 0 L 31.230469 -6.992188 C 30.171875 -4.855469 28.5 -3.082031 26.214844 -1.679688 C 23.929688 -0.273438 21.441406 0.425781 18.746094 0.425781 Z M 19.679688 -5.464844 C 21.738281 -5.464844 23.644531 -5.972656 25.398438 -6.992188 C 27.148438 -8.007812 28.535156 -9.382812 29.550781 -11.113281 C 30.570312 -12.847656 31.078125 -14.738281 31.078125 -16.792969 C 31.078125 -18.847656 30.570312 -20.742188 29.550781 -22.484375 C 28.535156 -24.222656 27.148438 -25.609375 25.398438 -26.636719 C 23.644531 -27.664062 21.738281 -28.179688 19.679688 -28.179688 C 17.652344 -28.179688 15.773438 -27.664062 14.042969 -26.640625 C 12.3125 -25.613281 10.9375 -24.226562 9.921875 -22.480469 C 8.902344 -20.734375 8.394531 -18.835938 8.394531 -16.785156 C 8.394531 -14.734375 8.902344 -12.84375 9.921875 -11.113281 C 10.9375 -9.382812 12.3125 -8.007812 14.042969 -6.992188 C 15.773438 -5.972656 17.652344 -5.464844 19.679688 -5.464844 Z M 19.679688 -5.464844 "/></g></g></g><g fill="#615d47" fill-opacity="1"><g transform="translate(361.937966, 284.732824)"><g><path d="M 25.949219 0.734375 C 21.777344 0.734375 17.933594 -0.300781 14.425781 -2.367188 C 10.914062 -4.433594 8.128906 -7.230469 6.074219 -10.761719 C 4.019531 -14.292969 2.992188 -18.132812 2.992188 -22.285156 C 2.992188 -26.417969 4.019531 -30.238281 6.074219 -33.75 C 8.128906 -37.261719 10.914062 -40.042969 14.425781 -42.097656 C 17.933594 -44.15625 21.777344 -45.183594 25.949219 -45.183594 C 29.53125 -45.183594 32.890625 -44.410156 36.023438 -42.863281 C 39.15625 -41.316406 41.792969 -39.1875 43.929688 -36.480469 L 38.742188 -32.636719 C 37.214844 -34.546875 35.332031 -36.050781 33.09375 -37.136719 C 30.855469 -38.226562 28.472656 -38.769531 25.949219 -38.769531 C 22.957031 -38.769531 20.195312 -38.035156 17.660156 -36.558594 C 15.125 -35.082031 13.117188 -33.085938 11.632812 -30.574219 C 10.144531 -28.0625 9.402344 -25.308594 9.402344 -22.316406 C 9.402344 -19.285156 10.144531 -16.496094 11.632812 -13.953125 C 13.117188 -11.40625 15.125 -9.398438 17.660156 -7.921875 C 20.195312 -6.445312 22.957031 -5.707031 25.949219 -5.707031 C 28.535156 -5.707031 30.960938 -6.273438 33.230469 -7.402344 C 35.5 -8.53125 37.378906 -10.085938 38.863281 -12.058594 L 44.386719 -8.640625 C 42.273438 -5.730469 39.601562 -3.441406 36.375 -1.769531 C 33.148438 -0.101562 29.671875 0.734375 25.949219 0.734375 Z M 25.949219 0.734375 "/></g></g></g><g fill="#615d47" fill-opacity="1"><g transform="translate(408.46195, 284.732824)"><g><path d="M 25.949219 0.734375 C 21.777344 0.734375 17.933594 -0.300781 14.425781 -2.367188 C 10.914062 -4.433594 8.128906 -7.230469 6.074219 -10.761719 C 4.019531 -14.296875 2.992188 -18.136719 2.992188 -22.285156 C 2.992188 -26.417969 4.019531 -30.238281 6.074219 -33.75 C 8.125 -37.265625 10.910156 -40.046875 14.421875 -42.101562 C 17.933594 -44.15625 21.773438 -45.183594 25.933594 -45.183594 C 30.097656 -45.183594 33.925781 -44.15625 37.425781 -42.101562 C 40.921875 -40.046875 43.699219 -37.265625 45.757812 -33.75 C 47.816406 -30.238281 48.84375 -26.417969 48.84375 -22.285156 C 48.84375 -18.136719 47.816406 -14.296875 45.761719 -10.761719 C 43.707031 -7.230469 40.929688 -4.433594 37.433594 -2.367188 C 33.933594 -0.300781 30.105469 0.734375 25.949219 0.734375 Z M 25.949219 -5.707031 C 28.921875 -5.707031 31.667969 -6.445312 34.191406 -7.921875 C 36.714844 -9.398438 38.714844 -11.40625 40.191406 -13.953125 C 41.667969 -16.496094 42.402344 -19.285156 42.402344 -22.316406 C 42.402344 -25.304688 41.667969 -28.054688 40.191406 -30.570312 C 38.714844 -33.085938 36.714844 -35.082031 34.191406 -36.558594 C 31.667969 -38.035156 28.914062 -38.769531 25.933594 -38.769531 C 22.953125 -38.769531 20.195312 -38.035156 17.660156 -36.558594 C 15.125 -35.082031 13.117188 -33.085938 11.632812 -30.570312 C 10.144531 -28.054688 9.402344 -25.304688 9.402344 -22.316406 C 9.402344 -19.285156 10.144531 -16.496094 11.632812 -13.953125 C 13.117188 -11.40625 15.128906 -9.398438 17.660156 -7.921875 C 20.195312 -6.445312 22.960938 -5.707031 25.949219 -5.707031 Z M 25.949219 -5.707031 "/></g></g></g><g fill="#615d47" fill-opacity="1"><g transform="translate(460.297725, 284.732824)"><g><path d="M 4.976562 -44.570312 L 11.601562 -44.570312 L 28.484375 -15.84375 L 45.367188 -44.570312 L 51.988281 -44.570312 L 51.988281 0 L 45.699219 0 L 45.699219 -34.039062 L 30.34375 -7.875 L 26.621094 -7.875 L 11.265625 -34.039062 L 11.265625 0 L 4.976562 0 Z M 4.976562 -44.570312 "/></g></g></g><g fill="#615d47" fill-opacity="1"><g transform="translate(517.262126, 284.732824)"><g/></g></g><g fill="#615d47" fill-opacity="1"><g transform="translate(533.930175, 284.732824)"><g><path d="M 18.835938 0.671875 C 15.824219 0.652344 12.960938 0.0820312 10.242188 -1.039062 C 7.523438 -2.15625 5.039062 -3.929688 2.777344 -6.351562 L 6.746094 -10.378906 C 8.414062 -8.730469 10.257812 -7.449219 12.273438 -6.53125 C 14.289062 -5.617188 16.503906 -5.148438 18.925781 -5.128906 C 21.65625 -5.109375 23.863281 -5.722656 25.550781 -6.976562 C 27.242188 -8.226562 28.085938 -9.941406 28.085938 -12.121094 C 28.085938 -13.6875 27.625 -14.984375 26.695312 -16.011719 C 25.769531 -17.039062 24.609375 -17.855469 23.21875 -18.453125 C 21.824219 -19.054688 19.925781 -19.742188 17.523438 -20.515625 C 14.59375 -21.453125 12.195312 -22.367188 10.332031 -23.261719 C 8.472656 -24.15625 6.890625 -25.445312 5.585938 -27.125 C 4.285156 -28.804688 3.632812 -30.964844 3.632812 -33.613281 C 3.632812 -35.851562 4.214844 -37.851562 5.371094 -39.609375 C 6.53125 -41.371094 8.21875 -42.753906 10.425781 -43.761719 C 12.632812 -44.769531 15.222656 -45.273438 18.195312 -45.273438 C 20.882812 -45.273438 23.566406 -44.6875 26.253906 -43.519531 C 28.941406 -42.347656 31.199219 -40.542969 33.03125 -38.097656 L 28.574219 -34.589844 C 27.476562 -36.074219 26.003906 -37.253906 24.164062 -38.128906 C 22.320312 -39.003906 20.421875 -39.464844 18.46875 -39.503906 C 16.738281 -39.503906 15.21875 -39.253906 13.90625 -38.757812 C 12.59375 -38.257812 11.574219 -37.566406 10.851562 -36.679688 C 10.128906 -35.792969 9.769531 -34.792969 9.769531 -33.671875 C 9.769531 -32.308594 10.203125 -31.183594 11.066406 -30.300781 C 11.929688 -29.414062 13.015625 -28.691406 14.316406 -28.132812 C 15.621094 -27.574219 17.410156 -26.9375 19.691406 -26.222656 C 22.785156 -25.246094 25.289062 -24.300781 27.199219 -23.386719 C 29.113281 -22.46875 30.761719 -21.128906 32.144531 -19.371094 C 33.53125 -17.609375 34.222656 -15.304688 34.222656 -12.457031 C 34.222656 -9.789062 33.570312 -7.464844 32.269531 -5.480469 C 30.964844 -3.496094 29.148438 -1.96875 26.820312 -0.902344 C 24.488281 0.167969 21.828125 0.691406 18.835938 0.671875 Z M 18.835938 0.671875 "/></g></g></g><g fill="#615d47" fill-opacity="1"><g transform="translate(570.990612, 284.732824)"><g><path d="M 21.613281 0.671875 C 18.359375 0.671875 15.425781 -0.0507812 12.820312 -1.496094 C 10.21875 -2.941406 8.15625 -4.996094 6.640625 -7.664062 C 5.125 -10.328125 4.367188 -13.433594 4.367188 -16.972656 L 4.367188 -44.570312 L 10.65625 -44.570312 L 10.65625 -17.003906 C 10.65625 -14.582031 11.128906 -12.515625 12.074219 -10.808594 C 13.019531 -9.097656 14.300781 -7.808594 15.921875 -6.945312 C 17.539062 -6.082031 19.386719 -5.648438 21.460938 -5.648438 C 23.539062 -5.648438 25.410156 -6.082031 27.078125 -6.945312 C 28.746094 -7.808594 30.074219 -9.097656 31.0625 -10.808594 C 32.050781 -12.515625 32.542969 -14.582031 32.542969 -17.003906 L 32.542969 -44.570312 L 38.863281 -44.570312 L 38.863281 -16.972656 C 38.863281 -13.433594 38.097656 -10.328125 36.574219 -7.664062 C 35.046875 -4.996094 32.976562 -2.941406 30.359375 -1.496094 C 27.746094 -0.0507812 24.828125 0.671875 21.613281 0.671875 Z M 21.613281 0.671875 "/></g></g></g><g fill="#615d47" fill-opacity="1"><g transform="translate(614.21762, 284.732824)"><g><path d="M 25.949219 0.734375 C 21.777344 0.734375 17.933594 -0.300781 14.425781 -2.367188 C 10.914062 -4.433594 8.128906 -7.230469 6.074219 -10.761719 C 4.019531 -14.292969 2.992188 -18.132812 2.992188 -22.285156 C 2.992188 -26.417969 4.019531 -30.238281 6.074219 -33.75 C 8.128906 -37.261719 10.914062 -40.042969 14.425781 -42.097656 C 17.933594 -44.15625 21.777344 -45.183594 25.949219 -45.183594 C 29.53125 -45.183594 32.890625 -44.410156 36.023438 -42.863281 C 39.15625 -41.316406 41.792969 -39.1875 43.929688 -36.480469 L 38.742188 -32.636719 C 37.214844 -34.546875 35.332031 -36.050781 33.09375 -37.136719 C 30.855469 -38.226562 28.472656 -38.769531 25.949219 -38.769531 C 22.957031 -38.769531 20.195312 -38.035156 17.660156 -36.558594 C 15.125 -35.082031 13.117188 -33.085938 11.632812 -30.574219 C 10.144531 -28.0625 9.402344 -25.308594 9.402344 -22.316406 C 9.402344 -19.285156 10.144531 -16.496094 11.632812 -13.953125 C 13.117188 -11.40625 15.125 -9.398438 17.660156 -7.921875 C 20.195312 -6.445312 22.957031 -5.707031 25.949219 -5.707031 C 28.535156 -5.707031 30.960938 -6.273438 33.230469 -7.402344 C 35.5 -8.53125 37.378906 -10.085938 38.863281 -12.058594 L 44.386719 -8.640625 C 42.273438 -5.730469 39.601562 -3.441406 36.375 -1.769531 C 33.148438 -0.101562 29.671875 0.734375 25.949219 0.734375 Z M 25.949219 0.734375 "/></g></g></g><g fill="#615d47" fill-opacity="1"><g transform="translate(660.741589, 284.732824)"><g><path d="M 4.976562 -44.570312 L 32.511719 -44.570312 L 32.511719 -38.742188 L 11.234375 -38.742188 L 11.234375 -25.734375 L 31.292969 -25.734375 L 31.292969 -19.964844 L 11.234375 -19.964844 L 11.234375 -6.074219 L 33.125 -6.074219 L 33.125 0 L 4.976562 0 Z M 4.976562 -44.570312 "/></g></g></g><g fill="#615d47" fill-opacity="1"><g transform="translate(696.825133, 284.732824)"><g><path d="M 18.835938 0.671875 C 15.824219 0.652344 12.960938 0.0820312 10.242188 -1.039062 C 7.523438 -2.15625 5.039062 -3.929688 2.777344 -6.351562 L 6.746094 -10.378906 C 8.414062 -8.730469 10.257812 -7.449219 12.273438 -6.53125 C 14.289062 -5.617188 16.503906 -5.148438 18.925781 -5.128906 C 21.65625 -5.109375 23.863281 -5.722656 25.550781 -6.976562 C 27.242188 -8.226562 28.085938 -9.941406 28.085938 -12.121094 C 28.085938 -13.6875 27.625 -14.984375 26.695312 -16.011719 C 25.769531 -17.039062 24.609375 -17.855469 23.21875 -18.453125 C 21.824219 -19.054688 19.925781 -19.742188 17.523438 -20.515625 C 14.59375 -21.453125 12.195312 -22.367188 10.332031 -23.261719 C 8.472656 -24.15625 6.890625 -25.445312 5.585938 -27.125 C 4.285156 -28.804688 3.632812 -30.964844 3.632812 -33.613281 C 3.632812 -35.851562 4.214844 -37.851562 5.371094 -39.609375 C 6.53125 -41.371094 8.21875 -42.753906 10.425781 -43.761719 C 12.632812 -44.769531 15.222656 -45.273438 18.195312 -45.273438 C 20.882812 -45.273438 23.566406 -44.6875 26.253906 -43.519531 C 28.941406 -42.347656 31.199219 -40.542969 33.03125 -38.097656 L 28.574219 -34.589844 C 27.476562 -36.074219 26.003906 -37.253906 24.164062 -38.128906 C 22.320312 -39.003906 20.421875 -39.464844 18.46875 -39.503906 C 16.738281 -39.503906 15.21875 -39.253906 13.90625 -38.757812 C 12.59375 -38.257812 11.574219 -37.566406 10.851562 -36.679688 C 10.128906 -35.792969 9.769531 -34.792969 9.769531 -33.671875 C 9.769531 -32.308594 10.203125 -31.183594 11.066406 -30.300781 C 11.929688 -29.414062 13.015625 -28.691406 14.316406 -28.132812 C 15.621094 -27.574219 17.410156 -26.9375 19.691406 -26.222656 C 22.785156 -25.246094 25.289062 -24.300781 27.199219 -23.386719 C 29.113281 -22.46875 30.761719 -21.128906 32.144531 -19.371094 C 33.53125 -17.609375 34.222656 -15.304688 34.222656 -12.457031 C 34.222656 -9.789062 33.570312 -7.464844 32.269531 -5.480469 C 30.964844 -3.496094 29.148438 -1.96875 26.820312 -0.902344 C 24.488281 0.167969 21.828125 0.691406 18.835938 0.671875 Z M 18.835938 0.671875 "/></g></g></g><g fill="#615d47" fill-opacity="1"><g transform="translate(733.88557, 284.732824)"><g><path d="M 18.835938 0.671875 C 15.824219 0.652344 12.960938 0.0820312 10.242188 -1.039062 C 7.523438 -2.15625 5.039062 -3.929688 2.777344 -6.351562 L 6.746094 -10.378906 C 8.414062 -8.730469 10.257812 -7.449219 12.273438 -6.53125 C 14.289062 -5.617188 16.503906 -5.148438 18.925781 -5.128906 C 21.65625 -5.109375 23.863281 -5.722656 25.550781 -6.976562 C 27.242188 -8.226562 28.085938 -9.941406 28.085938 -12.121094 C 28.085938 -13.6875 27.625 -14.984375 26.695312 -16.011719 C 25.769531 -17.039062 24.609375 -17.855469 23.21875 -18.453125 C 21.824219 -19.054688 19.925781 -19.742188 17.523438 -20.515625 C 14.59375 -21.453125 12.195312 -22.367188 10.332031 -23.261719 C 8.472656 -24.15625 6.890625 -25.445312 5.585938 -27.125 C 4.285156 -28.804688 3.632812 -30.964844 3.632812 -33.613281 C 3.632812 -35.851562 4.214844 -37.851562 5.371094 -39.609375 C 6.53125 -41.371094 8.21875 -42.753906 10.425781 -43.761719 C 12.632812 -44.769531 15.222656 -45.273438 18.195312 -45.273438 C 20.882812 -45.273438 23.566406 -44.6875 26.253906 -43.519531 C 28.941406 -42.347656 31.199219 -40.542969 33.03125 -38.097656 L 28.574219 -34.589844 C 27.476562 -36.074219 26.003906 -37.253906 24.164062 -38.128906 C 22.320312 -39.003906 20.421875 -39.464844 18.46875 -39.503906 C 16.738281 -39.503906 15.21875 -39.253906 13.90625 -38.757812 C 12.59375 -38.257812 11.574219 -37.566406 10.851562 -36.679688 C 10.128906 -35.792969 9.769531 -34.792969 9.769531 -33.671875 C 9.769531 -32.308594 10.203125 -31.183594 11.066406 -30.300781 C 11.929688 -29.414062 13.015625 -28.691406 14.316406 -28.132812 C 15.621094 -27.574219 17.410156 -26.9375 19.691406 -26.222656 C 22.785156 -25.246094 25.289062 -24.300781 27.199219 -23.386719 C 29.113281 -22.46875 30.761719 -21.128906 32.144531 -19.371094 C 33.53125 -17.609375 34.222656 -15.304688 34.222656 -12.457031 C 34.222656 -9.789062 33.570312 -7.464844 32.269531 -5.480469 C 30.964844 -3.496094 29.148438 -1.96875 26.820312 -0.902344 C 24.488281 0.167969 21.828125 0.691406 18.835938 0.671875 Z M 18.835938 0.671875 "/></g></g></g><g fill="#615d47" fill-opacity="1"><g transform="translate(770.946006, 284.732824)"><g><path d="M 25.949219 0.734375 C 21.777344 0.734375 17.933594 -0.300781 14.425781 -2.367188 C 10.914062 -4.433594 8.128906 -7.230469 6.074219 -10.761719 C 4.019531 -14.296875 2.992188 -18.136719 2.992188 -22.285156 C 2.992188 -26.417969 4.019531 -30.238281 6.074219 -33.75 C 8.125 -37.265625 10.910156 -40.046875 14.421875 -42.101562 C 17.933594 -44.15625 21.773438 -45.183594 25.933594 -45.183594 C 30.097656 -45.183594 33.925781 -44.15625 37.425781 -42.101562 C 40.921875 -40.046875 43.699219 -37.265625 45.757812 -33.75 C 47.816406 -30.238281 48.84375 -26.417969 48.84375 -22.285156 C 48.84375 -18.136719 47.816406 -14.296875 45.761719 -10.761719 C 43.707031 -7.230469 40.929688 -4.433594 37.433594 -2.367188 C 33.933594 -0.300781 30.105469 0.734375 25.949219 0.734375 Z M 25.949219 -5.707031 C 28.921875 -5.707031 31.667969 -6.445312 34.191406 -7.921875 C 36.714844 -9.398438 38.714844 -11.40625 40.191406 -13.953125 C 41.667969 -16.496094 42.402344 -19.285156 42.402344 -22.316406 C 42.402344 -25.304688 41.667969 -28.054688 40.191406 -30.570312 C 38.714844 -33.085938 36.714844 -35.082031 34.191406 -36.558594 C 31.667969 -38.035156 28.914062 -38.769531 25.933594 -38.769531 C 22.953125 -38.769531 20.195312 -38.035156 17.660156 -36.558594 C 15.125 -35.082031 13.117188 -33.085938 11.632812 -30.570312 C 10.144531 -28.054688 9.402344 -25.304688 9.402344 -22.316406 C 9.402344 -19.285156 10.144531 -16.496094 11.632812 -13.953125 C 13.117188 -11.40625 15.128906 -9.398438 17.660156 -7.921875 C 20.195312 -6.445312 22.960938 -5.707031 25.949219 -5.707031 Z M 25.949219 -5.707031 "/></g></g></g><g fill="#615d47" fill-opacity="1"><g transform="translate(822.781789, 284.732824)"><g><path d="M 4.609375 -44.570312 L 10.683594 -44.570312 L 10.136719 -9.921875 L 5.160156 -9.921875 Z M 7.664062 0.671875 C 6.644531 0.671875 5.773438 0.308594 5.050781 -0.414062 C 4.328125 -1.132812 3.96875 -2.003906 3.96875 -3.023438 C 3.96875 -4.058594 4.328125 -4.933594 5.050781 -5.648438 C 5.773438 -6.359375 6.644531 -6.714844 7.664062 -6.714844 C 8.660156 -6.714844 9.515625 -6.355469 10.226562 -5.632812 C 10.9375 -4.910156 11.296875 -4.039062 11.296875 -3.023438 C 11.296875 -2.003906 10.9375 -1.132812 10.226562 -0.414062 C 9.515625 0.308594 8.660156 0.671875 7.664062 0.671875 Z M 7.664062 0.671875 "/></g></g></g></svg>